<svg xmlns="http://www.w3.org/2000/svg" viewBox="0 0 64 64">
  <rect width="64" height="64" rx="12" fill="#1A1210"/>
  <!-- Cup body -->
  <path d="M16 26h24v18a6 6 0 0 1-6 6H22a6 6 0 0 1-6-6V26z" fill="none" stroke="#C9A96E" stroke-width="2.5" stroke-linecap="round" stroke-linejoin="round"/>
  <!-- Cup handle -->
  <path d="M40 30h4a5 5 0 0 1 0 10h-4" fill="none" stroke="#C9A96E" stroke-width="2.5" stroke-linecap="round" stroke-linejoin="round"/>
  <!-- Steam lines -->
  <path d="M24 20c0-3 2-4 2-6" fill="none" stroke="#C9A96E" stroke-width="1.8" stroke-linecap="round" opacity="0.7"/>
  <path d="M28 18c0-3 2-4 2-6" fill="none" stroke="#C9A96E" stroke-width="1.8" stroke-linecap="round" opacity="0.5"/>
  <path d="M32 20c0-3 2-4 2-6" fill="none" stroke="#C9A96E" stroke-width="1.8" stroke-linecap="round" opacity="0.7"/>
  <!-- Coffee liquid surface -->
  <ellipse cx="28" cy="30" rx="10" ry="2" fill="#C9A96E" opacity="0.3"/>
</svg>
